<?xml version="1.0" encoding="UTF-8" standalone="no"?>
<svg
   id="Layer_1"
   data-name="Layer 1"
   viewBox="0 0 24 24"
   version="1.1"
   sodipodi:docname="410.svg"
   inkscape:version="1.4 (e7c3feb100, 2024-10-09)"
   xmlns:inkscape="http://www.inkscape.org/namespaces/inkscape"
   xmlns:sodipodi="http://sodipodi.sourceforge.net/DTD/sodipodi-0.dtd"
   xmlns="http://www.w3.org/2000/svg"
   xmlns:svg="http://www.w3.org/2000/svg">
  <defs
     id="defs1" />
  <sodipodi:namedview
     id="namedview1"
     pagecolor="#ffffff"
     bordercolor="#000000"
     borderopacity="0.25"
     inkscape:showpageshadow="2"
     inkscape:pageopacity="0.0"
     inkscape:pagecheckerboard="0"
     inkscape:deskcolor="#d1d1d1"
     inkscape:zoom="22.916667"
     inkscape:cx="12"
     inkscape:cy="22.472727"
     inkscape:window-width="1292"
     inkscape:window-height="813"
     inkscape:window-x="26"
     inkscape:window-y="23"
     inkscape:window-maximized="0"
     inkscape:current-layer="Layer_1" />
  <path
     d="m 16.341818,15.8 v 6.4 c 0,0.442 -0.358,0.8 -0.8,0.8 -0.442,0 -0.800069,-0.358 -0.8,-0.8 l 10e-4,-6.401 c 6.9e-5,-0.442 0.358,-0.8 0.8,-0.8 0.442,0 0.8,0.358 0.8,0.8 z M 11.2,15 c -0.442,0 -0.8,0.358 -0.8,0.8 v 3.601 H 8.799 c -0.111,0 -0.2,-0.09 -0.2,-0.2 v -3.4 c 0,-0.442 -0.358,-0.8 -0.8,-0.8 -0.442,0 -0.8,0.358 -0.8,0.8 v 3.2 c 0,1.105 0.895,2 2,2 h 1.4 v 1.2 c 0,0.442 0.358,0.8 0.8,0.8 0.442,0 0.8,-0.358 0.8,-0.8 v -6.4 c 0,-0.442 -0.358,-0.8 -0.8,-0.8 z M 24,17.5 v 3 C 24,21.878 22.878,23 21.5,23 20.122,23 19,21.878 19,20.5 v -3 c 0,-1.378 1.122,-2.5 2.5,-2.5 1.378,0 2.5,1.122 2.5,2.5 z m -1.6,0 c 0,-0.496 -0.404,-0.9 -0.9,-0.9 -0.496,0 -0.9,0.404 -0.9,0.9 v 3 c 0,0.496 0.404,0.9 0.9,0.9 0.496,0 0.9,-0.404 0.9,-0.9 z M 4.5,4 C 3.672,4 3,4.672 3,5.5 3,6.328 3.672,7 4.5,7 5.328,7 6,6.328 6,5.5 6,4.672 5.328,4 4.5,4 Z m 4,0 C 7.672,4 7,4.672 7,5.5 7,6.328 7.672,7 8.5,7 9.328,7 10,6.328 10,5.5 10,4.672 9.328,4 8.5,4 Z M 24,6 v 6 c 0,0.552 -0.448,1 -1,1 -0.552,0 -1,-0.448 -1,-1 V 10 H 2 v 8 c 0,1.654 1.346,3 3,3 0.552,0 1,0.448 1,1 0,0.552 -0.448,1 -1,1 C 2.243,23 0,20.757 0,18 V 6 C 0,3.243 2.243,1 5,1 h 14 c 2.757,0 5,2.243 5,5 z M 22,8 V 6 C 22,4.346 20.654,3 19,3 H 5 C 3.346,3 2,4.346 2,6 v 2 z"
     id="path1"
     sodipodi:nodetypes="cssssscccscssssssscssssccssssssssssssssssssssssssssssccssssssssscsssscc" />
</svg>
